<svg width="1280" height="720" viewBox="0 0 1280 720" fill="none" xmlns="http://www.w3.org/2000/svg">
<g clip-path="url(#clip0_1_49)">
<rect width="1280" height="720" fill="#222222"/>
<path d="M887.593 117.361H12.4074C11.4971 117.342 10.6307 116.967 9.99369 116.317C9.35673 115.667 9 114.794 9 113.884C9 112.975 9.35673 112.102 9.99369 111.452C10.6307 110.802 11.4971 110.427 12.4074 110.408H887.593C888.503 110.427 889.369 110.802 890.006 111.452C890.643 112.102 891 112.975 891 113.884C891 114.794 890.643 115.667 890.006 116.317C889.369 116.967 888.503 117.342 887.593 117.361V117.361Z" fill="#3F3D56"/>
<path d="M71.9845 92.657C83.2492 92.657 92.3811 83.3317 92.3811 71.8285C92.3811 60.3252 83.2492 51 71.9845 51C60.7198 51 51.5879 60.3252 51.5879 71.8285C51.5879 83.3317 60.7198 92.657 71.9845 92.657Z" fill="#3F3D56"/>
<path d="M142.444 92.657C153.708 92.657 162.84 83.3317 162.84 71.8285C162.84 60.3252 153.708 51 142.444 51C131.179 51 122.047 60.3252 122.047 71.8285C122.047 83.3317 131.179 92.657 142.444 92.657Z" fill="#3F3D56"/>
<path d="M212.904 92.657C224.169 92.657 233.301 83.3317 233.301 71.8285C233.301 60.3252 224.169 51 212.904 51C201.64 51 192.508 60.3252 192.508 71.8285C192.508 83.3317 201.64 92.657 212.904 92.657Z" fill="#3F3D56"/>
<path d="M845.17 56.1624H795.118C794.126 56.1821 793.182 56.5896 792.487 57.2974C791.792 58.0052 791.403 58.9569 791.403 59.9481C791.403 60.9392 791.792 61.8909 792.487 62.5987C793.182 63.3065 794.126 63.714 795.118 63.7337H845.17C846.162 63.714 847.107 63.3065 847.802 62.5987C848.496 61.8909 848.885 60.9392 848.885 59.9481C848.885 58.9569 848.496 58.0052 847.802 57.2974C847.107 56.5896 846.162 56.1821 845.17 56.1624V56.1624Z" fill="#3F3D56"/>
<path d="M845.169 70.373H795.117C794.125 70.3926 793.18 70.8001 792.485 71.5079C791.791 72.2157 791.401 73.1674 791.401 74.1587C791.401 75.1499 791.791 76.1017 792.485 76.8095C793.18 77.5173 794.125 77.9248 795.117 77.9444H845.169C846.161 77.9248 847.106 77.5173 847.8 76.8095C848.495 76.1017 848.884 75.1499 848.884 74.1587C848.884 73.1674 848.495 72.2157 847.8 71.5079C847.106 70.8001 846.161 70.3926 845.169 70.373V70.373Z" fill="#3F3D56"/>
<path d="M845.169 84.5645H795.117C794.125 84.5841 793.18 84.9915 792.485 85.6993C791.791 86.4072 791.401 87.3589 791.401 88.3502C791.401 89.3414 791.791 90.2931 792.485 91.0009C793.18 91.7088 794.125 92.1162 795.117 92.1358H845.169C846.161 92.1162 847.106 91.7088 847.8 91.0009C848.495 90.2931 848.884 89.3414 848.884 88.3502C848.884 87.3589 848.495 86.4072 847.8 85.6993C847.106 84.9915 846.161 84.5841 845.169 84.5645V84.5645Z" fill="#3F3D56"/>
<path d="M76.8043 258.611C90.7309 258.611 102.021 247.334 102.021 233.422C102.021 219.511 90.7309 208.233 76.8043 208.233C62.8776 208.233 51.5879 219.511 51.5879 233.422C51.5879 247.334 62.8776 258.611 76.8043 258.611Z" fill="#4A4A4A"/>
<path d="M718.942 289.2H59.0968C57.1053 289.2 55.1954 288.41 53.7872 287.003C52.379 285.596 51.5879 283.688 51.5879 281.699C51.5879 279.71 52.379 277.802 53.7872 276.395C55.1954 274.988 57.1053 274.198 59.0968 274.198H718.942C720.934 274.198 722.844 274.988 724.252 276.395C725.66 277.802 726.451 279.71 726.451 281.699C726.451 283.688 725.66 285.596 724.252 287.003C722.844 288.41 720.934 289.2 718.942 289.2V289.2Z" fill="#4A4A4A"/>
<path d="M545.885 318.839H59.0952C57.1037 318.839 55.1936 318.049 53.7854 316.642C52.3771 315.235 51.5859 313.327 51.5859 311.338C51.5859 309.348 52.3771 307.44 53.7854 306.034C55.1936 304.627 57.1037 303.837 59.0952 303.837H545.885C547.876 303.837 549.786 304.627 551.194 306.034C552.603 307.44 553.394 309.348 553.394 311.338C553.394 313.327 552.603 315.235 551.194 316.642C549.786 318.049 547.876 318.839 545.885 318.839V318.839Z" fill="#4A4A4A"/>
<path d="M76.8043 651.772C90.7309 651.772 102.021 640.495 102.021 626.583C102.021 612.672 90.7309 601.394 76.8043 601.394C62.8776 601.394 51.5879 612.672 51.5879 626.583C51.5879 640.495 62.8776 651.772 76.8043 651.772Z" fill="#4A4A4A"/>
<path d="M718.941 682.361H59.0952C58.1081 682.362 57.1303 682.169 56.2179 681.793C55.3055 681.417 54.4763 680.865 53.7778 680.168C53.0792 679.471 52.5251 678.644 52.147 677.733C51.7689 676.822 51.5742 675.846 51.5742 674.86C51.5742 673.874 51.7689 672.897 52.147 671.987C52.5251 671.076 53.0792 670.248 53.7778 669.552C54.4763 668.855 55.3055 668.303 56.2179 667.927C57.1303 667.55 58.1081 667.357 59.0952 667.359H718.941C721.033 667.475 723.006 668.369 724.472 669.864C725.938 671.358 726.793 673.347 726.867 675.438C726.805 676.414 726.55 677.368 726.118 678.245C725.685 679.122 725.084 679.905 724.347 680.548C723.61 681.192 722.753 681.683 721.825 681.994C720.897 682.305 719.917 682.43 718.941 682.361V682.361Z" fill="#4A4A4A"/>
<path d="M545.885 712H59.0952C57.1037 712 55.1936 711.21 53.7854 709.803C52.3771 708.396 51.5859 706.488 51.5859 704.499C51.5859 702.509 52.3771 700.601 53.7854 699.195C55.1936 697.788 57.1037 696.998 59.0952 696.998H545.885C547.876 696.998 549.786 697.788 551.194 699.195C552.603 700.601 553.394 702.509 553.394 704.499C553.394 706.488 552.603 708.396 551.194 709.803C549.786 711.21 547.876 712 545.885 712V712Z" fill="#4A4A4A"/>
<path d="M76.8043 440.372C90.7309 440.372 102.021 429.095 102.021 415.183C102.021 401.272 90.7309 389.994 76.8043 389.994C62.8776 389.994 51.5879 401.272 51.5879 415.183C51.5879 429.095 62.8776 440.372 76.8043 440.372Z" fill="#4A4A4A"/>
<path d="M718.942 470.961H59.0968C57.1053 470.961 55.1954 470.17 53.7872 468.764C52.379 467.357 51.5879 465.449 51.5879 463.46C51.5879 461.471 52.379 459.563 53.7872 458.156C55.1954 456.749 57.1053 455.959 59.0968 455.959H718.942C720.934 455.959 722.844 456.749 724.252 458.156C725.66 459.563 726.451 461.471 726.451 463.46C726.451 465.449 725.66 467.357 724.252 468.764C722.844 470.17 720.934 470.961 718.942 470.961V470.961Z" fill="#4A4A4A"/>
<path d="M627.053 500.599H59.0952C57.1037 500.599 55.1936 499.809 53.7854 498.402C52.3771 496.996 51.5859 495.088 51.5859 493.098C51.5859 491.109 52.3771 489.201 53.7854 487.794C55.1936 486.387 57.1037 485.597 59.0952 485.597H627.053C629.044 485.597 630.954 486.387 632.362 487.794C633.771 489.201 634.562 491.109 634.562 493.098C634.562 495.088 633.771 496.996 632.362 498.402C630.954 499.809 629.044 500.599 627.053 500.599V500.599Z" fill="#4A4A4A"/>
<path d="M588.504 530.239H59.0952C57.1037 530.239 55.1936 529.449 53.7854 528.042C52.3771 526.635 51.5859 524.727 51.5859 522.738C51.5859 520.749 52.3771 518.841 53.7854 517.434C55.1936 516.027 57.1037 515.237 59.0952 515.237H588.504C590.495 515.237 592.405 516.027 593.814 517.434C595.222 518.841 596.013 520.749 596.013 522.738C596.013 524.727 595.222 526.635 593.814 528.042C592.405 529.449 590.495 530.239 588.504 530.239V530.239Z" fill="#4A4A4A"/>
<g opacity="0.5" clip-path="url(#clip1_1_49)">
<path d="M1116.33 290.997L495.233 380.761L537.807 675.617L1158.9 585.854L1116.33 290.997Z" fill="#9A9A9A"/>
<path d="M1102.22 318.848L516.644 403.478L552.165 649.486L1137.74 564.856L1102.22 318.848Z" fill="#555555"/>
<path d="M1113.6 274L492.508 363.763L496.32 390.161L1117.41 300.398L1113.6 274Z" fill="#A9A9A9"/>
<path d="M514.357 381.396C517.086 381.396 519.299 379.182 519.299 376.452C519.299 373.722 517.086 371.509 514.357 371.509C511.628 371.509 509.416 373.722 509.416 376.452C509.416 379.182 511.628 381.396 514.357 381.396Z" fill="#555555"/>
<path d="M532.92 378.713C535.649 378.713 537.861 376.5 537.861 373.769C537.861 371.039 535.649 368.826 532.92 368.826C530.191 368.826 527.979 371.039 527.979 373.769C527.979 376.5 530.191 378.713 532.92 378.713Z" fill="#555555"/>
<path d="M551.484 376.03C554.213 376.03 556.425 373.817 556.425 371.086C556.425 368.356 554.213 366.143 551.484 366.143C548.755 366.143 546.543 368.356 546.543 371.086C546.543 373.817 548.755 376.03 551.484 376.03Z" fill="#555555"/>
<path d="M1259 417.867H631.46V715.784H1259V417.867Z" fill="#6C6C6C"/>
<path d="M1241.06 443.414H649.405V691.976H1241.06V443.414Z" fill="#555555"/>
<path d="M1258.73 400.655H631.193V427.327H1258.73V400.655Z" fill="#ACABAB"/>
<path d="M651.004 421.282C653.733 421.282 655.945 419.069 655.945 416.339C655.945 413.609 653.733 411.395 651.004 411.395C648.275 411.395 646.063 413.609 646.063 416.339C646.063 419.069 648.275 421.282 651.004 421.282Z" fill="#555555"/>
<path d="M669.76 421.282C672.489 421.282 674.701 419.069 674.701 416.339C674.701 413.609 672.489 411.395 669.76 411.395C667.031 411.395 664.818 413.609 664.818 416.339C664.818 419.069 667.031 421.282 669.76 421.282Z" fill="#555555"/>
<path d="M688.516 421.282C691.245 421.282 693.457 419.069 693.457 416.339C693.457 413.609 691.245 411.395 688.516 411.395C685.787 411.395 683.575 413.609 683.575 416.339C683.575 419.069 685.787 421.282 688.516 421.282Z" fill="#555555"/>
<path d="M1073.66 481.205H990.332V487.471H1073.66V481.205Z" fill="#6C6C6C"/>
<path d="M1119.01 499.6H990.332V505.866H1119.01V499.6Z" fill="#6C6C6C"/>
<path d="M1096.54 517.118H991.67V523.384H1096.54V517.118Z" fill="#6C6C6C"/>
<path d="M1051.55 536.34H990.332V542.606H1051.55V536.34Z" fill="#6C6C6C"/>
<path d="M1082.73 555.116H990.332V561.381H1082.73V555.116Z" fill="#6C6C6C"/>
<path d="M962.556 479.234H952.353V489.442H962.556V479.234Z" fill="#6C6C6C"/>
<path d="M962.556 497.629H952.353V507.837H962.556V497.629Z" fill="#6C6C6C"/>
<path d="M962.556 515.147H952.353V525.355H962.556V515.147Z" fill="#6C6C6C"/>
<path d="M962.556 534.369H952.353V544.577H962.556V534.369Z" fill="#6C6C6C"/>
<path d="M962.556 553.145H952.353V563.353H962.556V553.145Z" fill="#6C6C6C"/>
<path d="M1073.66 574.009H990.332V580.275H1073.66V574.009Z" fill="#6C6C6C"/>
<path d="M1119.01 592.403H990.332V598.669H1119.01V592.403Z" fill="#6C6C6C"/>
<path d="M1096.54 609.922H991.67V616.188H1096.54V609.922Z" fill="#6C6C6C"/>
<path d="M1051.55 629.144H990.332V635.41H1051.55V629.144Z" fill="#6C6C6C"/>
<path d="M1082.73 647.919H990.332V654.185H1082.73V647.919Z" fill="#6C6C6C"/>
<path d="M962.556 572.038H952.353V582.246H962.556V572.038Z" fill="#6C6C6C"/>
<path d="M962.556 590.432H952.353V600.64H962.556V590.432Z" fill="#6C6C6C"/>
<path d="M962.556 607.951H952.353V618.159H962.556V607.951Z" fill="#6C6C6C"/>
<path d="M962.556 627.173H952.353V637.381H962.556V627.173Z" fill="#6C6C6C"/>
<path d="M962.556 645.948H952.353V656.156H962.556V645.948Z" fill="#6C6C6C"/>
<path d="M810.056 623.159H726.729V629.425H810.056V623.159Z" fill="#6C6C6C"/>
<path d="M820.447 639.44H715.58V645.706H820.447V639.44Z" fill="#6C6C6C"/>
<path d="M822.551 544.117C822.547 553.534 820.103 562.79 815.456 570.98C810.808 579.17 804.118 586.014 796.037 590.843C787.956 595.673 778.761 598.324 769.35 598.536C759.94 598.748 750.635 596.515 742.344 592.055L742.334 592.044C733.866 587.48 726.758 580.752 721.736 572.544C716.713 564.337 713.955 554.944 713.742 545.323C713.53 535.702 715.87 526.197 720.525 517.776C725.18 509.354 731.984 502.318 740.242 497.384C748.501 492.45 757.919 489.794 767.537 489.687C777.155 489.581 786.63 492.027 794.996 496.777C803.361 501.527 810.319 508.41 815.159 516.726C820 525.042 822.55 534.494 822.551 544.117V544.117Z" fill="#6C6C6C"/>
<path d="M768.42 541.474C776.589 541.474 783.211 534.849 783.211 526.677C783.211 518.505 776.589 511.88 768.42 511.88C760.252 511.88 753.63 518.505 753.63 526.677C753.63 534.849 760.252 541.474 768.42 541.474Z" fill="#555555"/>
<path d="M793.675 572.049C777.141 577.856 759.111 577.786 742.622 571.852L742.611 571.844L753.63 550.083H783.211L793.675 572.049Z" fill="#555555"/>
</g>
</g>
<defs>
<clipPath id="clip0_1_49">
<rect width="1280" height="720" fill="white"/>
</clipPath>
<clipPath id="clip1_1_49">
<rect width="1159" height="718" fill="white" transform="translate(100 274)"/>
</clipPath>
</defs>
</svg>
